<?xml version="1.0" encoding="utf-8"?>
<!-- Generator: Adobe Illustrator 15.1.0, SVG Export Plug-In . SVG Version: 6.00 Build 0)  -->
<!DOCTYPE svg PUBLIC "-//W3C//DTD SVG 1.1//EN" "http://www.w3.org/Graphics/SVG/1.1/DTD/svg11.dtd">
<svg version="1.1" id="Layer_1" xmlns="http://www.w3.org/2000/svg" xmlns:xlink="http://www.w3.org/1999/xlink" x="0px" y="0px"
	 width="200px" height="180px" viewBox="0 0 200 180" enable-background="new 0 0 200 180" xml:space="preserve">
<g>
	<path fill-rule="evenodd" clip-rule="evenodd" fill="#FFFFFF" d="M136.982,33.995c-0.585,6.081-7.226,6.105-4.999,14.998
		c8.383,3.512,20.483,4.695,31.996,6.999c9.54,1.91,26.238,0.586,25.997,12.999c-18.551-4.113-36.747-8.581-56.993-10.999
		c-2.3,2.366-0.358,8.974-1,12.998c-11.101,12.252-51.313,13.11-60.992-1c0-5.666,0-11.332,0-16.998
		c-18.507-3.17-43.753,0.902-59.993,0c0.127-1.793-1.224-2.109-1-4c14.07-6.974,40.715-2.757,60.993-4
		c1.032-6.031-4.771-5.228-4-10.999c10.781-7.55,22.047-14.615,33.996-20.998C113.785,19.197,125.313,26.667,136.982,33.995z
		 M86.989,70.99c0.435-4.564-1.011-11.01,1-13.998c3.026-1.514,12.339-2.045,13.999,1c0,4.999,0,9.999,0,14.998
		c9.771,0.438,16.726-1.938,22.997-5c0-7.333,0-14.665,0-21.997c-11.591,3.967-34.598,4.78-45.994,0
		C80.207,55.774,74.613,72.368,86.989,70.99z M94.988,72.99c4.211-0.122,0.993-7.673,2-10.999c-1.333,0-2.666,0-4,0
		C93.995,65.317,90.777,72.868,94.988,72.99z"/>
	<path fill-rule="evenodd" clip-rule="evenodd" fill="none" d="M78.99,45.993c11.396,4.78,34.403,3.967,45.994,0
		c0,7.332,0,14.665,0,21.997c-6.271,3.061-13.227,5.438-22.997,5c0-5,0-9.999,0-14.998c-1.659-3.045-10.972-2.514-13.999-1
		c-2.011,2.988-0.565,9.434-1,13.998C74.613,72.368,80.207,55.774,78.99,45.993z"/>
	<path fill-rule="evenodd" clip-rule="evenodd" fill="none" d="M92.988,61.991c1.333,0,2.667,0,4,0
		c-1.007,3.326,2.211,10.876-2,10.999C90.777,72.868,93.995,65.317,92.988,61.991z"/>
	<path fill-rule="evenodd" clip-rule="evenodd" fill="#FFFFFF" d="M85.989,91.987c0.665,4.257-3.87,4.555-5,8.999
		c-2.249,8.845,2.521,21.811-1,29.996c-11.034,14.343-55.05,13.838-64.992-1c-1.022-12.643,2.948-30.277-4-36.995
		c9.361-9.511,23.86-18.053,34.996-23.997c3.927-2.097,16.205,8.114,20.998,10.999C74.06,84.242,81.49,86.457,85.989,91.987z
		 M22.997,128.982c7.132,2.867,14.354,5.644,24.997,5c0-5.666,0-11.332,0-16.998c3.949-1.718,8.454-2.878,13.998-3
		c3.197,3.469,1.655,11.677,2,17.998c4.488-0.178,7.252-2.08,9.999-4c0-7.999,0-15.998,0-23.997c-13.216,4.12-37.894,4.665-50.994,0
		C22.997,112.318,22.997,120.65,22.997,128.982z M54.993,133.982c0.667,0,1.333,0,2,0c2.304-2.695,0.355-9.645,1-13.999
		c-1.333,0-2.667,0-4,0C53.047,122.442,51.087,133.184,54.993,133.982z"/>
	<path fill-rule="evenodd" clip-rule="evenodd" fill="#FFFFFF" d="M189.977,106.985c-7.89,8.108-4.231,27.765-5,42.995
		c-12.354,16.439-60.477,16.282-73.99,0.999c-1.231-14.766,3.605-35.601-5-42.994c10.655-11.676,27.11-17.552,39.995-26.997
		C161.771,88.529,176.47,97.161,189.977,106.985z M117.985,147.98c3.093,2.239,6.509,4.156,10.998,4.999
		c0.656-6.344-1.317-15.316,1-19.997c3.352-0.367,14.214-0.447,15.998,3.999c0,5.999,0,11.999,0,17.998
		c13.029,0.697,22.413-2.25,30.996-5.999c0-9.666,0-19.331,0-28.997c-15.905,5.418-43.149,5.594-58.992,0
		C117.985,129.315,117.985,138.648,117.985,147.98z M133.983,153.979c2.355-0.022,2.943,1.723,5.999,1c0-5.333,0-10.665,0-15.998
		c-3.056,0.723-3.644-1.022-5.999-1C133.983,143.314,133.983,148.646,133.983,153.979z"/>
	<path fill-rule="evenodd" clip-rule="evenodd" fill="none" d="M22.997,103.985c13.1,4.665,37.777,4.12,50.994,0
		c0,7.999,0,15.998,0,23.997c-2.747,1.92-5.511,3.822-9.999,4c-0.345-6.321,1.197-14.529-2-17.998
		c-5.544,0.122-10.049,1.282-13.998,3c0,5.666,0,11.332,0,16.998c-10.643,0.644-17.865-2.133-24.997-5
		C22.997,120.65,22.997,112.318,22.997,103.985z"/>
	<path fill-rule="evenodd" clip-rule="evenodd" fill="none" d="M53.993,119.983c1.333,0,2.667,0,4,0
		c-0.645,4.354,1.304,11.304-1,13.999c-0.667,0-1.333,0-2,0C51.087,133.184,53.047,122.442,53.993,119.983z"/>
	<path fill-rule="evenodd" clip-rule="evenodd" fill="none" d="M117.985,119.983c15.843,5.594,43.087,5.418,58.992,0
		c0,9.666,0,19.331,0,28.997c-8.583,3.749-17.967,6.696-30.996,5.999c0-5.999,0-11.999,0-17.998
		c-1.784-4.446-12.646-4.366-15.998-3.999c-2.317,4.681-0.344,13.653-1,19.997c-4.489-0.843-7.905-2.76-10.998-4.999
		C117.985,138.648,117.985,129.315,117.985,119.983z"/>
	<path fill-rule="evenodd" clip-rule="evenodd" fill="none" d="M133.983,137.981c2.355-0.022,2.943,1.723,5.999,1
		c0,5.333,0,10.665,0,15.998c-3.056,0.723-3.644-1.022-5.999-1C133.983,148.646,133.983,143.314,133.983,137.981z"/>
</g>
</svg>
